<svg width="38" height="40" viewBox="0 0 38 40" fill="none" xmlns="http://www.w3.org/2000/svg">
<path d="M28.6 9.16992H10.7C9.76112 9.16992 9 9.93104 9 10.8699V11.3599C9 12.2988 9.76112 13.0599 10.7 13.0599H28.6C29.5389 13.0599 30.3 12.2988 30.3 11.3599V10.8699C30.3 9.93104 29.5389 9.16992 28.6 9.16992Z" fill="white"/>
<path d="M28.6 15.3701H10.7C9.76112 15.3701 9 16.1312 9 17.0701V17.5601C9 18.499 9.76112 19.2601 10.7 19.2601H28.6C29.5389 19.2601 30.3 18.499 30.3 17.5601V17.0701C30.3 16.1312 29.5389 15.3701 28.6 15.3701Z" fill="white"/>
<path d="M15.5 21.5703H1.99999C1.0611 21.5703 0.299988 22.3314 0.299988 23.2703V23.7603C0.299988 24.6992 1.0611 25.4603 1.99999 25.4603H15.5C16.4389 25.4603 17.2 24.6992 17.2 23.7603V23.2703C17.2 22.3314 16.4389 21.5703 15.5 21.5703Z" fill="white"/>
<path d="M24.5 21.5703H11C10.0611 21.5703 9.29999 22.3314 9.29999 23.2703V23.7603C9.29999 24.6992 10.0611 25.4603 11 25.4603H24.5C25.4389 25.4603 26.2 24.6992 26.2 23.7603V23.2703C26.2 22.3314 25.4389 21.5703 24.5 21.5703Z" fill="white"/>
<path d="M10.9 27.4702H1.7C0.761116 27.4702 0 28.2313 0 29.1702V29.6602C0 30.5991 0.761116 31.3602 1.7 31.3602H10.9C11.8389 31.3602 12.6 30.5991 12.6 29.6602V29.1702C12.6 28.2313 11.8389 27.4702 10.9 27.4702Z" fill="white"/>
<path d="M17.4 27.4702H8.2C7.26112 27.4702 6.5 28.2313 6.5 29.1702V29.6602C6.5 30.5991 7.26112 31.3602 8.2 31.3602H17.4C18.3389 31.3602 19.1 30.5991 19.1 29.6602V29.1702C19.1 28.2313 18.3389 27.4702 17.4 27.4702Z" fill="white"/>
<path d="M37.5 9.27009C37.5 6.97009 37.6 4.67009 37.5 2.37009C37.5318 2.08658 37.4994 1.79955 37.4051 1.53029C37.3108 1.26104 37.1571 1.01647 36.9554 0.814741C36.7536 0.613012 36.5091 0.459301 36.2398 0.365013C35.9706 0.270725 35.6835 0.238282 35.4 0.270091H4.00002C3.61942 0.225748 3.23431 0.297519 2.89523 0.475981C2.55615 0.654444 2.27895 0.931259 2.10002 1.27009C1.97682 1.65859 1.90948 2.06263 1.90002 2.47009V18.4701H5.60002V4.87009C5.60002 3.97009 5.60002 3.97009 6.50002 3.97009H32.9C33.8 3.97009 33.8 3.97009 33.8 4.97009C33.8 10.5701 33.9 16.1701 33.8 21.8701C33.7 27.5701 30.9 31.8701 25.6 34.4701C23.9472 35.2668 22.1348 35.6771 20.3 35.6701C15.6 35.7701 10.9 35.6701 6.20002 35.6701H5.70002C5.70002 35.4701 5.60002 35.2701 5.60002 35.0701H1.90002V37.6701C1.97632 38.1208 2.18521 38.5386 2.50002 38.8701C2.95433 39.238 3.5158 39.4486 4.10002 39.4701H19.1C21.3097 39.5387 23.5132 39.1998 25.6 38.4701C29.1023 37.3074 32.1473 35.0673 34.3 32.0701C36.5111 28.908 37.6661 25.128 37.6 21.2701C37.5 17.2701 37.5 13.2701 37.5 9.27009Z" fill="white"/>
<path d="M4.00002 32.27H3.50002C2.61637 32.27 1.90002 32.9864 1.90002 33.87V36.7C1.90002 37.5837 2.61637 38.3 3.50002 38.3H4.00002C4.88368 38.3 5.60002 37.5837 5.60002 36.7V33.87C5.60002 32.9864 4.88368 32.27 4.00002 32.27Z" fill="white"/>
<path d="M4.00002 14.27H3.50002C2.61637 14.27 1.90002 14.9864 1.90002 15.87V18.7C1.90002 19.5837 2.61637 20.3 3.50002 20.3H4.00002C4.88368 20.3 5.60002 19.5837 5.60002 18.7V15.87C5.60002 14.9864 4.88368 14.27 4.00002 14.27Z" fill="white"/>
</svg>
